<svg xmlns="http://www.w3.org/2000/svg" width="24" height="24" viewBox="0 0 24 24" fill="none">
<path fill-rule="evenodd" clip-rule="evenodd" d="M6.79289 6.79289C7.18342 6.40237 7.81658 6.40237 8.20711 6.79289L17.2071 15.7929C17.5976 16.1834 17.5976 16.8166 17.2071 17.2071C16.8166 17.5976 16.1834 17.5976 15.7929 17.2071L6.79289 8.20711C6.40237 7.81658 6.40237 7.18342 6.79289 6.79289Z" fill="#121212"/>
<path fill-rule="evenodd" clip-rule="evenodd" d="M17.2071 6.79289C16.8166 6.40237 16.1834 6.40237 15.7929 6.79289L6.79289 15.7929C6.40237 16.1834 6.40237 16.8166 6.79289 17.2071C7.18342 17.5976 7.81658 17.5976 8.20711 17.2071L17.2071 8.20711C17.5976 7.81658 17.5976 7.18342 17.2071 6.79289Z" fill="#121212"/>
</svg>