<svg width="16" height="16" viewBox="0 0 16 16" fill="none" xmlns="http://www.w3.org/2000/svg">
<path d="M11.9571 0.792893C11.5666 0.402369 10.9334 0.402369 10.5429 0.792893C10.1524 1.18342 10.1524 1.81658 10.5429 2.20711L11.8358 3.5H2.75C2.19772 3.5 1.75 3.94772 1.75 4.5C1.75 5.05228 2.19772 5.5 2.75 5.5H11.8358L10.5429 6.79289C10.1524 7.18342 10.1524 7.81658 10.5429 8.20711C10.9334 8.59763 11.5666 8.59763 11.9571 8.20711L14.9571 5.20711C15.3476 4.81658 15.3476 4.18342 14.9571 3.79289L11.9571 0.792893Z" fill="#8949FF"/>
<path d="M4.04289 7.79289C4.43342 7.40237 5.06658 7.40237 5.45711 7.79289C5.84763 8.18342 5.84763 8.81658 5.45711 9.20711L4.16421 10.5H13.25C13.8023 10.5 14.25 10.9477 14.25 11.5C14.25 12.0523 13.8023 12.5 13.25 12.5H4.16421L5.45711 13.7929C5.84763 14.1834 5.84763 14.8166 5.45711 15.2071C5.06658 15.5976 4.43342 15.5976 4.04289 15.2071L1.04289 12.2071C0.652369 11.8166 0.652369 11.1834 1.04289 10.7929L4.04289 7.79289Z" fill="#8949FF"/>
</svg>
