<svg width="90" height="20" viewBox="0 0 90 20" fill="none" xmlns="http://www.w3.org/2000/svg">
<path d="M84.663 2.67432H85.0401C85.3906 2.67432 85.6458 3.43241 85.8058 4.9486H85.6115L85.9887 6.28575C85.8668 6.97146 85.8058 7.54289 85.8058 8.00003L85.9887 10.2743C85.7677 11.1657 85.5163 11.6115 85.2344 11.6115H85.0401C84.6058 11.6115 84.2896 10.9143 84.0915 9.52003V6.28575C84.0915 5.76003 84.0268 5.06289 83.8972 4.19432C84.103 3.18098 84.3582 2.67432 84.663 2.67432ZM72.1144 3.24574C75.2839 3.55813 76.8687 4.31622 76.8687 5.52003C76.9982 5.52003 77.063 5.83622 77.063 6.4686C76.583 9.3867 76.1373 10.8457 75.7258 10.8457H75.1544C74.8649 10.8457 74.6744 10.5296 74.583 9.89717C74.9639 8.11432 75.1544 6.97146 75.1544 6.4686V5.71432C74.9182 5.42479 73.9049 4.97908 72.1144 4.37717L71.543 3.62289C71.543 3.37146 71.7334 3.24574 72.1144 3.24574Z" fill="#212121"/>
<path d="M57.0819 0C58.6058 0 59.3677 1.20381 59.3677 3.61143C58.6972 5.13524 57.7448 5.89714 56.5105 5.89714C54.7353 5.51619 53.8477 4.62857 53.8477 3.23429C53.8477 1.65714 54.6705 0.579047 56.3162 0H57.0819ZM66.3962 0H66.9677C67.4324 0 67.8134 2.34667 68.1105 7.04C67.9886 7.45143 67.7372 7.70286 67.3562 7.79429C67.1657 7.79429 66.6591 7.35238 65.8362 6.46857H65.4477C62.7886 6.46857 61.4591 6.15238 61.4591 5.52V5.13143C61.581 4.75048 61.9619 4.56 62.6019 4.56C62.7239 4.56 62.7848 4.62476 62.7848 4.75429C62.9143 4.75429 62.9791 4.68952 62.9791 4.56L66.0191 4.94857C66.0191 4.81905 66.0839 4.75429 66.2134 4.75429C66.2134 3.23048 65.4515 2.46857 63.9277 2.46857C62.9143 2.00381 62.4076 1.68762 62.4076 1.52V0.754285C62.5448 0.754285 62.7353 0.693333 62.9791 0.571429C63.6267 0.822857 64.64 0.948571 66.0191 0.948571C66.0191 0.31619 66.1448 0 66.3962 0ZM55.3677 3.04C55.6267 3.8019 55.8819 4.18286 56.1334 4.18286H56.5105C57.1734 4.18286 57.6191 3.86667 57.8477 3.23429C57.7486 2.09143 57.4286 1.52 56.8877 1.52C55.8743 1.68 55.3677 2.18667 55.3677 3.04ZM62.6019 10.08C65.7715 10.3771 67.3562 11.3905 67.3562 13.12V13.3143H67.1619L67.3562 13.6914V15.2114C67.3562 15.9733 66.9753 16.3543 66.2134 16.3543L65.6419 15.6V14.64C65.6419 12.8648 64.9448 11.9771 63.5505 11.9771C62.5372 11.6648 62.0305 11.2876 62.0305 10.8457C62.221 10.3352 62.4115 10.08 62.6019 10.08Z" fill="#212121"/>
<path d="M36.918 0.571289C37.5504 0.571289 37.8666 1.45891 37.8666 3.23415V3.99986C37.8666 4.3351 38.88 4.58653 40.9066 4.75415L41.1009 4.377V2.66272C41.1009 2.47986 41.2914 2.28938 41.6723 2.09129C42.3047 2.09129 42.6209 2.97891 42.6209 4.75415C42.6209 7.80176 41.6685 9.32557 39.7638 9.32557H39.3866C37.36 9.32557 36.3466 7.67605 36.3466 4.377C36.2171 3.38653 36.1523 2.37319 36.1523 1.337C36.2438 0.95605 36.499 0.700812 36.918 0.571289ZM49.4666 0.765574C49.8476 1.41319 50.0381 2.04557 50.0381 2.66272C50.0381 2.79224 49.9771 2.857 49.8552 2.857L50.0381 3.23415V4.57129C50.0381 5.23415 50.1028 6.31224 50.2323 7.80557L49.6609 8.18272H49.2838C48.7733 8.18272 48.4571 7.23034 48.3352 5.32557H45.2838C44.6285 5.32557 44.2476 5.1351 44.1409 4.75415V4.18272C44.1409 3.99986 44.3314 3.80938 44.7123 3.61129H46.2323L48.1409 3.80557L48.3352 3.42843V1.897C48.3352 1.14272 48.7123 0.765574 49.4666 0.765574ZM38.0495 5.897V6.09129C38.3085 6.73129 38.4381 7.17319 38.4381 7.417H39.1924C39.4819 7.417 39.7371 7.48177 39.9581 7.61129C40.3162 7.61129 40.6323 7.16557 40.9066 6.27415L40.5295 6.09129C40.24 6.09129 39.9847 6.15224 39.7638 6.27415C39.1771 6.02272 38.6057 5.897 38.0495 5.897ZM45.6609 8.937H46.2323C46.5219 8.937 46.7124 9.76367 46.8038 11.417C46.8038 12.2322 47.9466 12.6741 50.2323 12.7427L50.4266 13.1313V13.5084C50.2209 14.0189 49.7752 14.2741 49.0895 14.2741H47.9466C46.0495 14.2741 45.1009 12.8761 45.1009 10.0799C45.2228 9.31796 45.4095 8.937 45.6609 8.937Z" fill="#212121"/>
<path d="M31.5885 2.65137H31.7827C32.4151 2.84184 32.7313 3.66851 32.7313 5.13137V9.31422L32.5485 10.4571C32.6704 10.7009 32.7313 10.8914 32.7313 11.0285C32.4799 11.5466 32.3542 11.9276 32.3542 12.1714H31.5885C31.0856 12.0037 30.8342 11.4323 30.8342 10.4571V10.0799C30.8342 9.95042 30.8951 9.88565 31.017 9.88565C30.8951 9.64184 30.8342 9.45137 30.8342 9.31422H29.8742C27.718 9.23803 26.6399 8.85708 26.6399 8.17137V7.41708H26.8342C27.2685 7.41708 28.6018 7.47803 30.8342 7.59994L31.017 7.2228V6.45708C28.1142 6.45708 26.4646 5.8247 26.0685 4.55994V4.36565C26.3808 4.11422 26.6361 3.98851 26.8342 3.98851L30.8342 4.7428L31.017 4.36565C31.017 4.08375 30.9561 3.83232 30.8342 3.61137C31.078 3.03232 31.3294 2.71232 31.5885 2.65137ZM19.0285 3.03994C19.5694 3.03994 20.0151 4.49899 20.3656 7.41708C20.5561 8.30089 21.2532 8.74279 22.457 8.74279C23.8513 8.74279 24.5485 8.93327 24.5485 9.31422V9.50851C24.2589 10.1409 23.6227 10.4571 22.6399 10.4571H21.6913C19.5351 10.4571 18.457 8.49137 18.457 4.55994C18.457 3.6228 18.6475 3.11613 19.0285 3.03994Z" fill="#212121"/>
<path d="M11.04 1.71436H11.4171C11.6229 1.71436 11.8781 2.15626 12.1829 3.04007L11.9886 4.18293V4.94864C12.0648 5.23816 13.0171 5.61912 14.8457 6.0915L15.0286 6.46864V7.41721C14.899 7.41721 14.7086 7.48197 14.4571 7.6115C13.52 7.48197 12.6971 7.2915 11.9886 7.04007V7.23436C11.9886 8.49912 11.7333 9.19626 11.2229 9.32578C10.5905 9.15054 10.2743 8.70483 10.2743 7.98864V5.89721C10.2743 3.10864 10.5295 1.71436 11.04 1.71436ZM0.571432 2.28578H1.14285C1.44 2.28578 1.75619 3.68007 2.09143 6.46864C2.30476 6.97912 3.32191 7.23436 5.14286 7.23436L6.09142 7.04007C6.21333 7.42102 6.33905 7.6115 6.46857 7.6115C6.08762 8.49531 5.45524 8.93721 4.57143 8.93721H4.37715C4.24762 8.93721 4.18285 8.87626 4.18285 8.75436L3.80571 8.93721H3.61143C1.87429 8.93721 0.796188 8.11436 0.37714 6.46864C0.37714 6.14102 0.251428 5.37912 0 4.18293C0.129524 2.91816 0.320004 2.28578 0.571432 2.28578ZM8.94857 12.5601C10.5943 12.5601 11.4171 13.322 11.4171 14.8458V16.7429C11.4171 18.0153 10.6552 18.6515 9.13143 18.6515H8.18286C6.64381 18.6515 5.69143 17.5086 5.32572 15.2229V14.2744C5.32572 13.1315 6.53334 12.5601 8.94857 12.5601ZM7.80571 14.2744H7.04V14.4572C7.25333 16.1105 7.56952 16.9372 7.98857 16.9372H9.32571C9.50857 16.9372 9.69904 16.7467 9.89714 16.3658V15.6001C9.89714 14.5867 9.58095 14.0801 8.94857 14.0801L7.80571 14.2744Z" fill="#212121"/>
</svg>
